<svg id="Layer_1" data-name="Layer 1" xmlns="http://www.w3.org/2000/svg" width="420" height="560" viewBox="0 0 420 560"><defs><style>.cls-1{fill:#fff;}</style></defs><path class="cls-1" d="M249.19,496.22A247.4,247.4,0,0,1,74.25,73.88,247.43,247.43,0,0,1,387.54,43.69L349.47,100A178.44,178.44,0,0,0,249.19,69.41c-98.92,0-179.4,80.48-179.4,179.4s80.48,179.41,179.4,179.41Z"/><path class="cls-1" d="M321.77,558.59c-1.86-1.67-45.88-41.11-75.85-75-19.07-21.53-44.21-55.58-55.72-95.56-12.53-43.52-6.3-85.13,18-120.32,16.7-24.16,38.23-41.12,62.25-49.06a102.68,102.68,0,0,1,70.27,2.07c24.8,9.64,46.14,28.33,60.08,52.6,14.66,25.5,20.2,54.93,16,85.1-6.24,45.21-31.18,83-72.12,109.27-4.17,2.68-8.37,5.15-12.56,7.41,18.65,18.17,34.66,32.52,34.92,32.75Zm-19-277.06c-13.89,0-27.24,8.51-38.56,24.9-12.7,18.35-15.52,38.91-8.63,62.84,5.73,19.89,17,38.48,28.29,53.41a132.16,132.16,0,0,0,27.4-14.3c22.07-15.19,34.95-35.11,38.27-59.21,4.48-32.42-13.42-57.26-33.4-65A36.81,36.81,0,0,0,302.73,281.53Z"/><rect class="cls-1" x="239.29" y="427.66" width="32.09" height="68" transform="translate(-15.98 9.21) rotate(-2)"/></svg>