<svg id="Layer_1" data-name="Layer 1" xmlns="http://www.w3.org/2000/svg" width="1810" height="560" viewBox="0 0 1810 560"><defs><style>.cls-1{fill:#fff;}</style></defs><path class="cls-1" d="M250,496.22A247.4,247.4,0,0,1,75,73.88,247.42,247.42,0,0,1,388.3,43.69L350.24,100A178.47,178.47,0,0,0,250,69.41c-98.93,0-179.41,80.48-179.41,179.4S151,428.22,250,428.22Z"/><path class="cls-1" d="M322.53,558.59c-1.86-1.67-45.87-41.11-75.85-75-19.06-21.53-44.2-55.58-55.72-95.56-12.53-43.52-6.29-85.13,18-120.32,16.7-24.16,38.22-41.12,62.25-49.06a102.69,102.69,0,0,1,70.27,2.07c24.79,9.64,46.13,28.33,60.08,52.6,14.65,25.5,20.19,54.93,16,85.1-6.24,45.21-31.18,83-72.12,109.27-4.17,2.68-8.38,5.15-12.56,7.41,18.64,18.17,34.65,32.52,34.91,32.75Zm-19-277.06c-13.89,0-27.23,8.51-38.56,24.9-12.69,18.35-15.51,38.91-8.62,62.84,5.73,19.89,17,38.48,28.28,53.41a132.16,132.16,0,0,0,27.4-14.3c22.07-15.19,34.95-35.11,38.28-59.21,4.47-32.42-13.42-57.26-33.41-65A36.77,36.77,0,0,0,303.49,281.53Z"/><rect class="cls-1" x="240.05" y="427.66" width="32.09" height="68" transform="translate(-15.98 9.23) rotate(-2)"/><path class="cls-1" d="M505.52,445.59c-1-2.3-24.17-56.66-37-100-8.17-27.57-16.54-69.06-10-110.16,7.07-44.74,30.33-79.8,67.26-101.39,25.36-14.81,52-21.07,77.17-18.1a102.82,102.82,0,0,1,62.79,31.61c18.38,19.24,29.81,45.2,32.17,73.09,2.48,29.31-5,58.32-21.49,83.89-24.79,38.32-63.38,62-111.59,68.48-4.91.66-9.77,1.12-14.52,1.4,9.21,24.36,17.64,44.12,17.78,44.45ZM528.66,306.4A132.13,132.13,0,0,0,559.54,305c26.43-4.42,46.52-17,59.74-37.45,17.77-27.47,12.07-57.55-2.75-73-13.76-14.4-33.82-15-56.48-1.79C540.78,204,529.52,221.43,525.64,246,522.41,266.48,524.79,288.1,528.66,306.4ZM513,304.1Z"/><path class="cls-1" d="M613.59,426.88c-.23-3.23-3.28-17-11.25-38.95S587.88,353.49,586,350.85a12.16,12.16,0,0,0,.85,1l50.12-46c8.42,9.19,18,28.16,28.41,56.38,5.66,15.33,15.29,43.67,16.15,61.23l-67.92,3.31Z"/><path class="cls-1" d="M829.08,458.28a187,187,0,0,1-47.42-6.43h0a78.22,78.22,0,0,1-56.24-57.06c-9.14-37.42-10.43-67-4-93.11,8.42-34.45,30.3-62.21,65-82.51,26.45-15.47,54.27-22,80.43-18.9a106.81,106.81,0,0,1,65.26,32.85c19.14,20,31,47.08,33.51,76.16,2.59,30.58-5.17,60.85-22.43,87.54C917.15,437,876.91,458.28,829.08,458.28Zm-30.15-72.2c11.74,3.07,29.28,6,46.19,2.68,17.21-3.43,30.6-12.87,41-28.87,19.37-29.95,13.09-62.81-3.14-79.78-15.26-16-37.36-16.76-62.22-2.23-34.79,20.33-42.44,46.7-29.24,100.77a10.29,10.29,0,0,0,7.46,7.43Z"/><path class="cls-1" d="M1136.35,435.44c-21.41,0-43.59-6.41-64.84-18.83-36.94-21.59-60.19-56.64-67.26-101.39-6.49-41.09,1.88-82.58,10-110.15,12.83-43.35,36-97.71,37-100l62.52,26.74c-.18.42-8.59,20.16-17.77,44.45,4.75.28,9.6.74,14.51,1.4,48.21,6.48,86.8,30.16,111.59,68.48,16.54,25.57,24,54.58,21.49,83.88-2.36,27.9-13.79,53.86-32.17,73.1a102.82,102.82,0,0,1-62.79,31.61A105.44,105.44,0,0,1,1136.35,435.44Zm-61.91-191.19c-3.87,18.29-6.25,39.92-3,60.37,3.88,24.59,15.14,42,34.41,53.29,22.66,13.24,42.72,12.61,56.48-1.79,14.82-15.5,20.52-45.58,2.75-73.06-13.22-20.42-33.32-33-59.74-37.44A132.13,132.13,0,0,0,1074.44,244.25Zm-15.7,2.3Zm55.08-114.75-31.26-13.37,31.26,13.37Z"/><path class="cls-1" d="M1086.65,179l-42.84-52.81a16.24,16.24,0,0,0-2.87,2.87c2.22-3.13,10.29-20,20.71-59.62,8.67-33,12.25-56.35,12.23-61.49,0,0,0,.26,0,.7l67.8-5.24c1.72,22.23-12.45,76.43-15.3,87.07-3.47,12.93-8.94,31.82-15.3,48.36C1103.17,159.5,1095.85,171.51,1086.65,179Z"/><path class="cls-1" d="M1355.73,419.08c-20.92,0-37.86-3.76-45.44-7.29L1339,350.16a23.81,23.81,0,0,0-2.89-1.14c.55.16,56.9,13.17,84-28.67l57.1,36.93C1445.34,406.55,1393.91,419.08,1355.73,419.08Z"/><path class="cls-1" d="M1419.83,488.26a133.51,133.51,0,0,1-48.38-8.65c-36.39-14.11-63.07-43.8-79.3-88.25-11.89-32.58-15.23-67.43-9.39-98.11,7.44-39.14,28.9-69.72,62-88.45,22.62-12.78,46.38-18,68.72-15A92.07,92.07,0,0,1,1469.36,219c16.12,17.36,26,40.58,27.68,65.38,1.82,26-5.12,51.53-20.07,73.92l-56.55-37.77c13.85-20.73,10-43.5-.9-55.27-12.34-13.3-29.25-8-41.27-1.21-15.61,8.83-25,22.55-28.69,42-3.53,18.53-1.17,41.16,6.47,62.09,9.29,25.46,22.29,41.18,39.72,48.05,26.69,10.52,61-1.65,72-7.22l-.16.08,31.47,60.29a185.53,185.53,0,0,1-39.88,14.24A170.42,170.42,0,0,1,1419.83,488.26Z"/><path class="cls-1" d="M1739.46,420.86h0c0-.92-1.22-60.68-9.75-123.06-4.88-35.65-11.12-65-18.55-87.18-9.11-27.24-17.24-35-19.34-36.68-15.27,1.15-43.24,25.55-66.47,69.86-13.28,25.33-22.59,52.46-26.21,76.39-4.6,30.45,1.77,42.55,3.83,45.53L1547,404.39c-34.71-50.19-12-134.89,18.09-192.18,14.95-28.52,32.93-53.13,52-71.17,24.64-23.33,50.15-35.16,75.82-35.16,12.8,0,31.8,3.91,49.66,22.5,10,10.42,18.54,24.19,26.1,42.1,10.9,25.84,19.79,61,26.42,104.46,10.91,71.51,12.28,141.74,12.34,144.69Z"/></svg>