<?xml version="1.0" encoding="utf-8"?>
<!-- Generator: Adobe Illustrator 26.0.3, SVG Export Plug-In . SVG Version: 6.00 Build 0)  -->
<svg version="1.1" id="Layer_1" xmlns="http://www.w3.org/2000/svg" xmlns:xlink="http://www.w3.org/1999/xlink" x="0px" y="0px"
	 viewBox="0 0 130 130" style="enable-background:new 0 0 130 130;" xml:space="preserve">
<path d="M115.9,1.2H14.1c-3.5-0.1-6.8,1-9.6,3.2c-2.5,1.8-4,4.6-4,7.7c0,3.1,1.5,6,4,7.8c2.7,2.2,6.1,3.3,9.6,3.2h101.8
	c3.5,0.1,6.9-1.1,9.6-3.2c2.5-1.8,4-4.7,4-7.8c0-3.1-1.5-5.9-4-7.7C122.7,2.2,119.4,1.1,115.9,1.2z"/>
<path d="M115.9,54.1H14.1c-3.5-0.1-6.8,1-9.6,3.2c-2.5,1.8-4,4.6-4,7.7c0,3.1,1.5,6,4,7.8c2.7,2.2,6.1,3.3,9.6,3.2h101.8
	c3.5,0.1,6.9-1.1,9.6-3.2c2.5-1.8,4-4.7,4-7.8c0-3.1-1.5-5.9-4-7.7C122.7,55.1,119.3,54,115.9,54.1z"/>
<path d="M115.9,106.9H14.1c-3.5-0.1-6.8,1-9.6,3.2c-2.5,1.8-4,4.6-4,7.7c0,3.1,1.5,6,4,7.8c2.7,2.2,6.1,3.3,9.6,3.2h101.8
	c3.5,0.1,6.9-1.1,9.6-3.2c2.5-1.8,4-4.7,4-7.8c0-3.1-1.5-5.9-4-7.7C122.7,107.9,119.3,106.8,115.9,106.9z"/>
</svg>
