<?xml version="1.0" encoding="utf-8"?>
<!-- Generator: Adobe Illustrator 26.0.3, SVG Export Plug-In . SVG Version: 6.00 Build 0)  -->
<svg version="1.1" id="Layer_1" xmlns="http://www.w3.org/2000/svg" xmlns:xlink="http://www.w3.org/1999/xlink" x="0px" y="0px"
	 viewBox="0 0 45 45" style="enable-background:new 0 0 45 45;" xml:space="preserve">
<g id="basket_filled">
	<path id="Path_23" d="M15.8,44.6c-2.4,0-4.4-2-4.4-4.4c0-2.4,2-4.4,4.4-4.4c2.4,0,4.4,2,4.4,4.4S18.2,44.6,15.8,44.6L15.8,44.6"/>
	<path id="Path_24" d="M36.3,44.6c-2.4,0-4.4-2-4.4-4.4s2-4.4,4.4-4.4c2.4,0,4.4,2,4.4,4.4S38.7,44.6,36.3,44.6
		C36.3,44.6,36.3,44.6,36.3,44.6"/>
	<path id="Path_25" d="M16.7,33c-2.8,0-5.2-2-5.8-4.8L6.2,4.8H0.4V0.4h9.4l1.9,9.4h33l-3.5,18.4C40.5,31,38,33,35.1,33L16.7,33
		 M12.5,14.1l2.6,13.2c0.2,0.7,0.8,1.3,1.6,1.3h18.4c0.8,0,1.4-0.5,1.6-1.3l2.5-13.2H12.5z"/>
</g>
</svg>
