<?xml version="1.0" encoding="utf-8"?>
<!-- Generator: Adobe Illustrator 26.0.3, SVG Export Plug-In . SVG Version: 6.00 Build 0)  -->
<svg version="1.1" id="Layer_1" xmlns="http://www.w3.org/2000/svg" xmlns:xlink="http://www.w3.org/1999/xlink" x="0px" y="0px"
	 viewBox="0 0 130 130" style="enable-background:new 0 0 130 130;" xml:space="preserve">
<g>
	<path d="M83,19.5c7.1-6.6,12.2-11,15.3-13.4c3.1-2.3,5.7-3.5,7.8-3.5c2,0,4.2,1,6.6,3c2.7,2.1,4,5,4,8.6c0,2.4-1.2,5.1-3.7,8.1
		c-2.5,3-9.1,9.9-20,20.6C77.1,58.6,69.1,67.3,69.1,68.9c0,1.3,2.6,6,7.8,13.9c5.2,7.9,10.1,14.7,14.7,20.5
		c4.3,5.2,6.4,9.3,6.4,12.2c0,2.3-1,4.6-3,7c-2,2.7-5,4-8.8,4c-2.8,0-5.5-0.9-8-2.8c-2.3-1.6-7.4-8-15.3-19.3
		c-7.6-10.8-11.7-16.3-12.2-16.3c-0.7,0-1.7,1.2-3.2,3.5c-1.5,2.3-2.2,4-2.2,5.1c0,1.7-1.1,3.7-3.2,5.8c-2.5,2.5-5.5,3.8-8.8,3.8
		c-2.5,0-4.8-0.8-6.8-2.4s-3.3-3.8-3.8-6.6c0-0.1,0-0.3-0.1-0.6c-0.1-0.3-0.1-0.5-0.1-0.6c0-2.9,1.4-7.2,4.1-12.7
		c2.7-5.6,5.9-10.4,9.3-14.6c2-2.7,3-4.8,3-6.2c0-2.4-3.2-10.1-9.6-23.1c-5-9.4-7.4-15.5-7.4-18.5c0-2.3,1.3-4.7,3.9-7.2
		c2.6-2.5,5.1-3.8,7.3-3.8c3.1,0,6,1.5,8.6,4.4c2.7,2.9,5.8,7.9,9.2,14.9c4.1,8.6,7.2,12.9,9.2,12.9c0.9,0,1.9-0.9,3-2.8
		C63.9,37.9,70.5,31.3,83,19.5z"/>
</g>
</svg>
