<?xml version="1.0" encoding="utf-8"?>
<!-- Generator: Adobe Illustrator 26.0.3, SVG Export Plug-In . SVG Version: 6.00 Build 0)  -->
<svg version="1.1" id="Layer_1" xmlns="http://www.w3.org/2000/svg" xmlns:xlink="http://www.w3.org/1999/xlink" x="0px" y="0px"
	 viewBox="0 0 45 45" style="enable-background:new 0 0 45 45;" xml:space="preserve">
<style type="text/css">
	.st0{fill:#FFFFFF;}
</style>
<g id="Rectangle_494">
	<rect x="4.7" y="1.9" class="st0" width="38.3" height="38.3"/>
</g>
<g id="ic-social-twitter-2" transform="translate(0 -0.004)">
	<g id="Path_470">
		<path d="M44.5,7.6c-1.7,0.7-3.5,1.1-5.3,1.3c1.8-1.1,3.2-2.8,4-4.8c-1.8,1.1-3.7,1.8-5.7,2.2c-1.6-1.9-3.9-2.9-6.4-2.9
			c-4.9-0.1-8.9,3.7-9,8.6c0,0.1,0,0.1,0,0.2c0,0.7,0,1.3,0.2,2c-7.1-0.2-13.7-3.5-18.1-9C3.3,6.5,2.8,8,2.9,9.6c0,3,1.5,5.8,4,7.5
			c-1.4-0.2-2.7-0.7-4-1.3V16c-0.3,4.2,2.7,7.9,6.8,8.6c-0.8,0.2-1.6,0.3-2.4,0.2c-0.6,0-1.2,0-1.8-0.2c1.2,3.7,4.5,6.2,8.4,6.2
			c-3.2,2.5-7.2,3.8-11.2,3.7c-0.7,0-1.5,0-2.2-0.2c4.6,3.1,10.1,4.6,15.6,4.4c16.5,0,24-13.7,24-25.3v-1.1
			C41.9,11,43.4,9.4,44.5,7.6z"/>
	</g>
</g>
</svg>
