<?xml version="1.0" encoding="utf-8"?>
<!-- Generator: Adobe Illustrator 26.0.3, SVG Export Plug-In . SVG Version: 6.00 Build 0)  -->
<svg version="1.1" id="Layer_1" xmlns="http://www.w3.org/2000/svg" xmlns:xlink="http://www.w3.org/1999/xlink" x="0px" y="0px"
	 viewBox="0 0 45 45" style="enable-background:new 0 0 45 45;" xml:space="preserve">
<style type="text/css">
	.st0{fill:none;}
	.st1{fill:#FFFFFF;}
</style>
<g>
	<g id="Rectangle_495">
		<rect x="-2.2" y="-3.5" class="st0" width="49.4" height="49.4"/>
	</g>
	<g id="ic-social-youtube-2">
		<g id="Path_471">
			<path d="M22.5,36.2c5.1,0.1,10.1-0.2,15.2-0.9c1.6-0.4,3-1.5,3.7-3c1.3-3.5,1.9-7.3,1.7-11c0.2-3.8-0.4-7.5-1.7-11
				c-0.8-1.5-2.1-2.6-3.7-3c-5-0.7-10.1-1.1-15.2-0.9C17.4,6.2,12.4,6.5,7.3,7.2c-1.6,0.4-3,1.5-3.7,3c-1.3,3.5-1.9,7.3-1.7,11
				c-0.2,3.8,0.4,7.5,1.7,11c0.8,1.5,2.1,2.6,3.7,3C12.4,36.1,17.4,36.4,22.5,36.2z"/>
			<path d="M20.3,37.8c-4.4,0-8.8-0.3-13.2-1c-2.2-0.6-3.9-2-4.9-3.8c-1.5-3.9-2.1-7.9-1.9-11.8c-0.2-3.8,0.4-7.8,1.8-11.5
				c1-2.1,2.7-3.5,4.9-4c5.2-0.8,10.4-1.1,15.5-1c5.1-0.1,10.3,0.2,15.3,0.9c2.2,0.6,3.9,2,4.9,3.8c1.5,3.9,2.1,7.8,1.9,11.8
				c0.2,3.8-0.4,7.8-1.8,11.5c-1,2.1-2.7,3.5-4.9,4c-5.2,0.8-10.4,1.1-15.5,1C21.8,37.8,21,37.8,20.3,37.8z M20.4,7.8
				c-4.3,0-8.6,0.3-12.8,0.9C6.5,9,5.5,9.8,5,10.9c-1.2,3.2-1.7,6.7-1.5,10.3C3.3,24.9,3.8,28.4,5,31.8c0.5,0.9,1.5,1.7,2.7,2
				c4.7,0.7,9.8,1,14.7,0.9c0,0,0.1,0,0.1,0c5,0.1,10-0.2,14.9-0.9c1.1-0.2,2.1-1,2.6-2.1c1.2-3.2,1.7-6.7,1.5-10.3
				c0.2-3.7-0.4-7.2-1.6-10.6c-0.5-0.9-1.5-1.7-2.7-2.1c-4.7-0.7-9.7-1-14.7-0.9C21.8,7.8,21.1,7.8,20.4,7.8z"/>
		</g>
		<g id="Path_472">
			<path class="st1" d="M17.4,26.3V16.2c0-0.7,0.5-1.3,1.2-1.3c0.2,0,0.5,0.1,0.7,0.2l8.5,5.1c0.6,0.4,0.7,1.1,0.4,1.7
				c-0.1,0.2-0.2,0.3-0.4,0.4l-8.5,5.2c-0.6,0.4-1.3,0.2-1.7-0.4C17.5,26.8,17.4,26.6,17.4,26.3z"/>
			<path class="st1" d="M18.7,29.2c-0.9,0-1.9-0.5-2.4-1.3c-0.3-0.5-0.4-1-0.4-1.5V16.2c0-1.5,1.2-2.8,2.7-2.8
				c0.5,0,1.1,0.1,1.5,0.4l8.5,5.1c0.6,0.4,1.1,1,1.2,1.7c0.2,0.7,0,1.5-0.4,2.1c-0.2,0.4-0.5,0.7-0.9,0.9l-8.5,5.2
				C19.6,29,19.1,29.2,18.7,29.2z M17.4,26.3L17.4,26.3L17.4,26.3z M19,16.7l0,9.1l7.5-4.6L19,16.7z M19,16.1L19,16.1
				C19,16.1,19,16.1,19,16.1z"/>
		</g>
	</g>
</g>
</svg>
