<?xml version="1.0" encoding="utf-8"?>
<!-- Generator: Adobe Illustrator 26.0.3, SVG Export Plug-In . SVG Version: 6.00 Build 0)  -->
<svg version="1.1" id="Layer_1" xmlns="http://www.w3.org/2000/svg" xmlns:xlink="http://www.w3.org/1999/xlink" x="0px" y="0px"
	 viewBox="0 0 45 45" style="enable-background:new 0 0 45 45;" xml:space="preserve">
<style type="text/css">
	.st0{fill-rule:evenodd;clip-rule:evenodd;}
</style>
<g id="instagram_filled">
	<path id="Path_27" d="M22.4,33.8c-6.2,0-11.2-5-11.2-11.2s5-11.2,11.2-11.2c6.2,0,11.2,5,11.2,11.2c0,0,0,0,0,0
		C33.5,28.7,28.5,33.8,22.4,33.8 M22.4,15.6c-3.9,0-7,3.1-7,7s3.1,7,7,7s7-3.1,7-7l0,0C29.4,18.7,26.2,15.6,22.4,15.6"/>
	<path id="Path_28" d="M30.6,44.6H14.4c-7.6,0-13.7-6.2-13.8-13.8V14.1c0-7.6,6.2-13.7,13.8-13.8h16.2c7.6,0,13.7,6.2,13.7,13.8
		v16.8C44.4,38.5,38.2,44.6,30.6,44.6 M14.4,4.6c-5.3,0-9.5,4.3-9.5,9.5v16.8c0,5.3,4.3,9.5,9.5,9.5h16.2c5.3,0,9.5-4.3,9.5-9.5
		V14.1c0-5.3-4.3-9.5-9.5-9.5H14.4z"/>
	<path id="Path_29" class="st0" d="M36.9,10.8c0,1.5-1.2,2.7-2.6,2.7c-1.5,0-2.7-1.2-2.7-2.6c0-1.5,1.2-2.7,2.6-2.7c0,0,0,0,0,0l0,0
		C35.7,8.2,36.9,9.4,36.9,10.8C36.9,10.8,36.9,10.8,36.9,10.8"/>
</g>
</svg>
